<svg width="80" height="80" viewBox="0 0 80 80" fill="none" xmlns="http://www.w3.org/2000/svg">
<path fill-rule="evenodd" clip-rule="evenodd" d="M60.888 74.1196C72.3526 67.086 80 54.4361 80 40C80 17.9086 62.0914 0 40 0C17.9086 0 0 17.9086 0 40C0 56.0132 9.40959 69.8286 23.0012 76.2187C23.1959 75.3423 23.413 74.6817 23.663 74.396C24.1424 73.8481 32.7039 66.314 33.1834 65.903C33.2068 65.6925 33.2371 65.3975 33.2726 65.0515L33.2726 65.051L33.2726 65.0507C33.4451 63.3705 33.7407 60.4905 33.9679 60.2633C34.1079 60.1233 34.8101 59.9838 35.5478 59.8984C35.5751 59.324 35.6149 58.6563 35.6536 58.0071L35.6536 58.0068L35.6537 58.0066C35.6957 57.3008 35.7365 56.6169 35.7585 56.0984C35.7418 56.0932 35.7251 56.088 35.7084 56.0827C35.6837 56.075 35.659 56.0672 35.6342 56.0594C33.4022 55.3535 31.0614 53.9451 29.1156 52.3197C27.1828 50.7052 25.5301 48.785 24.7847 46.989C24.36 45.9658 23.9866 44.3637 23.7186 42.5939C22.9498 42.8296 22.1891 42.6484 21.5812 42.2227C20.8419 41.7049 20.3225 40.8343 20.1493 39.9032C19.9873 39.0328 19.9637 38.0864 20.0469 37.2569C20.1267 36.4618 20.3169 35.6441 20.6801 35.122C21.1309 34.474 21.8193 34.1862 22.4838 34.1592C22.499 34.1586 22.5143 34.1581 22.5295 34.1578C22.6013 33.1222 22.7669 31.0782 23.099 28.1212C23.8152 21.7458 25.8891 17.4533 32.0437 13.8426C38.1983 10.232 46.0656 12.5966 49.2765 15.2377C53.3528 18.5905 54.9387 22.2129 55.6772 24.5106C56.3291 26.5387 56.5546 31.6445 56.6189 33.0989L56.6189 33.1L56.619 33.1013C56.6275 33.2933 56.6331 33.4212 56.6366 33.4695C56.6395 33.5104 56.6407 33.5501 56.6402 33.5887C56.9995 33.5444 57.368 33.5722 57.7234 33.6861C58.5146 33.9397 59.1326 34.5857 59.4046 35.5518C59.6544 36.4388 59.603 37.5505 59.4595 38.4802C59.3175 39.3999 59.0578 40.3128 58.7725 40.7979C58.372 41.4787 57.5113 41.9932 56.5275 42.0128C55.926 45.2954 54.8411 47.7502 53.444 49.8712C52.3614 51.5149 50.6991 53.0266 49.0085 54.1925C47.8037 55.0233 46.5329 55.714 45.3817 56.156C45.411 56.4976 45.4442 56.8543 45.4773 57.2035L45.5023 57.4669L45.5023 57.4672C45.5452 57.9187 45.586 58.3485 45.6141 58.6937C46.3634 58.6321 47.1474 58.6086 47.2889 58.6481C47.5075 58.7091 47.6089 58.8133 47.6714 59.3885C47.742 60.0374 47.8691 62.4839 47.8691 63.3518C48.1648 63.6968 53.4305 68.0043 57.1904 71.0801C58.9483 72.5181 60.3771 73.6869 60.8149 74.0556C60.8396 74.0764 60.864 74.0978 60.888 74.1196ZM42.9775 79.8909C42.7967 76.6374 42.6247 73.5098 42.4942 71.0768C41.93 71.2607 41.2955 71.3354 40.7192 71.3481C40.0972 71.3617 39.4466 71.3047 38.8842 71.1786C38.758 73.8804 38.6018 76.9267 38.4374 79.97C38.9558 79.99 39.4767 80 40 80C41.0015 80 41.9945 79.9632 42.9775 79.8909ZM35.0352 25.8137C34.0989 25.7417 31.5779 23.7249 29.9933 22.3563C28.8564 25.2099 27.3711 27.6012 27.178 27.6755C26.9849 27.7498 26.1511 27.4154 25.9404 26.8408C25.8593 27.5013 25.4558 30.5028 25.1114 32.8052C25.5453 32.8541 25.9954 32.9239 26.4135 33.0074C26.4262 32.9784 26.4391 32.9498 26.4521 32.9215L26.5004 32.817L26.5778 32.7318C27.0512 32.2118 27.8284 31.9171 28.5979 31.7382C29.4026 31.5511 30.3495 31.4578 31.3091 31.4402C33.2063 31.4054 35.3093 31.6647 36.6113 32.2009C37.5771 32.5985 38.3513 33.0364 38.7885 33.7851C38.8195 33.8382 38.8484 33.8921 38.8752 33.9468C39.2132 33.8649 39.5625 33.8247 39.8809 33.81C40.3539 33.7881 40.8559 33.8187 41.2972 33.9059C42.1548 32.576 44.2767 31.3319 47.7499 31.4241C49.7209 31.4765 51.1527 31.6621 52.1509 32.0389C52.5393 32.1854 52.8719 32.3654 53.1481 32.5813C53.3197 32.5607 53.5068 32.554 53.6439 32.5505C53.7175 32.5486 53.7957 32.5473 53.877 32.5467C53.7826 32.0202 53.7059 31.4945 53.6574 31.1097C53.5984 30.2838 53.3683 28.5376 52.9199 28.16C52.3595 27.6881 50.6487 24.6794 50.1767 23.824C50.3419 24.3667 50.1669 25.0923 50.0587 25.3873C50.0587 25.525 49.982 25.8003 49.6753 25.8003C49.2918 25.8003 46.6666 24.1484 46.1946 23.47C46.3421 24.0403 46.5014 25.287 45.9586 25.7118C45.2802 26.2427 43.0128 26.1356 41.5341 25.5348C40.1223 24.9612 37.434 23.3225 36.3131 22.6146C36.1993 23.705 35.7843 25.8713 35.0352 25.8137ZM37.3017 59.8491C37.2351 59.8352 37.1485 59.8258 37.0467 59.8204C37.0711 59.3369 37.1045 58.7705 37.138 58.2031L37.1381 58.2017L37.1381 58.2011L37.1381 58.201L37.1381 58.2008C37.1733 57.6052 37.2085 57.0085 37.2334 56.5052C39.7228 57.0975 41.7258 57.0595 43.9212 56.5921C43.9438 56.8437 43.9675 57.0975 43.9909 57.3442L44.0161 57.6103C44.0656 58.1317 44.1105 58.604 44.1368 58.9532C43.8376 59.1466 43.803 59.35 43.8415 59.7549C43.8821 60.1813 44.0648 65.2162 44.0648 65.4598C43.9372 65.5236 43.708 65.6246 43.4534 65.7368C42.979 65.9458 42.4165 66.1936 42.258 66.3125C42.2541 66.4453 42.3124 67.6395 42.4099 69.4919C42.0714 69.6962 41.4468 69.8387 40.6865 69.8554C40.0167 69.87 39.3802 69.7844 38.9538 69.6547C39.0091 68.4147 39.0563 67.2715 39.093 66.2649C39.1055 65.9273 38.1759 65.8625 37.6317 65.8246L37.618 65.8236C37.7062 64.6637 37.7369 61.7679 37.6703 60.4187C37.6558 60.125 37.5166 59.8939 37.3017 59.8491ZM49.4463 36.2188C49.4463 37.2924 48.576 38.1627 47.5024 38.1627C46.4288 38.1627 45.5585 37.2924 45.5585 36.2188C45.5585 35.1452 46.4288 34.2749 47.5024 34.2749C48.576 34.2749 49.4463 35.1452 49.4463 36.2188ZM32.0733 38.1627C33.1469 38.1627 34.0172 37.2924 34.0172 36.2188C34.0172 35.1452 33.1469 34.2749 32.0733 34.2749C30.9997 34.2749 30.1294 35.1452 30.1294 36.2188C30.1294 37.2924 30.9997 38.1627 32.0733 38.1627ZM46.3228 29.1439C46.6348 28.9749 47.033 28.9332 47.4402 29.005C47.855 29.0782 48.1891 29.2536 48.3539 29.4066C48.6451 29.677 49.1005 29.6602 49.3709 29.3689C49.6413 29.0777 49.6245 28.6224 49.3332 28.352C48.9253 27.9732 48.3186 27.6986 47.6903 27.5877C47.0543 27.4755 46.3071 27.5156 45.6374 27.8784C45.2879 28.0677 45.1581 28.5044 45.3474 28.8539C45.5367 29.2033 45.9734 29.3332 46.3228 29.1439ZM29.6137 29.9335C29.9825 29.4573 30.7648 29.2524 31.3632 29.4424C31.742 29.5627 32.1465 29.3532 32.2668 28.9744C32.3871 28.5956 32.1776 28.191 31.7988 28.0707C30.7084 27.7244 29.2651 28.0331 28.4758 29.0523C28.2325 29.3665 28.29 29.8185 28.6042 30.0618C28.9184 30.3052 29.3704 30.2477 29.6137 29.9335ZM56.7415 40.4944C56.8767 39.0765 56.9505 36.9245 56.7542 35.081C56.9383 35.0482 57.115 35.059 57.2677 35.1079C57.5281 35.1914 57.8152 35.4157 57.9675 35.9564C58.1308 36.5366 58.116 37.3966 57.9839 38.2523C57.8502 39.118 57.6248 39.8041 57.4855 40.0409C57.3832 40.2149 57.109 40.4223 56.7415 40.4944ZM23.3016 35.868C23.0823 35.721 22.8047 35.6405 22.5444 35.651C22.2647 35.6624 22.0459 35.7731 21.9057 35.9746C21.7689 36.1713 21.6065 36.6687 21.5325 37.406C21.462 38.1088 21.4835 38.9122 21.6171 39.6301C21.728 40.2259 22.0575 40.7335 22.4377 40.9997C22.7744 41.2355 23.1336 41.2837 23.5177 41.061C23.3263 39.3433 23.2335 37.5133 23.3016 35.868ZM54.0504 38.041C54.2006 37.2075 54.2889 36.2659 54.2453 35.3591L54.3224 35.3607C54.5016 35.3649 54.6805 35.3723 54.8432 35.3829C55.054 37.4833 54.8879 40.0895 54.715 41.1547C54.1811 44.444 53.1555 46.7966 51.8304 48.8084C50.9279 50.1787 49.4745 51.524 47.9115 52.6018C46.3413 53.6847 44.7623 54.4278 43.6605 54.6715C41.2967 55.1943 39.2469 55.1753 36.2168 54.2171C34.2841 53.6059 32.1612 52.3461 30.3542 50.8368C28.5342 49.3165 27.145 47.6354 26.5693 46.2483C26.1714 45.2896 25.768 43.494 25.5044 41.4062C25.2626 39.4913 25.1492 37.4174 25.2462 35.6567C25.4205 35.6824 25.5958 35.7117 25.7658 35.7441C25.7284 36.1244 25.708 36.5107 25.7057 36.8931C25.6968 38.3226 25.9377 39.8821 26.6499 40.9295L26.6799 40.9736L26.7159 41.013C27.5601 41.9376 28.9583 42.7027 30.5089 43.0719C32.0669 43.4428 33.8647 43.4348 35.5188 42.7077C36.7789 42.1988 37.6256 41.1289 38.1745 39.9939C38.7279 38.8497 39.0197 37.559 39.129 36.4658C39.1661 36.0948 39.1886 35.7424 39.1827 35.4089C39.3898 35.3552 39.6495 35.3153 39.9497 35.3014C40.2717 35.2866 40.5802 35.3043 40.8378 35.3417C40.8217 35.5752 40.8207 35.8193 40.8278 36.058C40.8437 36.5904 40.9039 37.1853 40.9879 37.7581C41.0719 38.3314 41.1819 38.8967 41.3012 39.3713C41.4125 39.8139 41.5535 40.2695 41.7281 40.5551C42.2261 41.3699 43.1255 41.9856 44.1774 42.3767C45.2428 42.7729 46.533 42.9661 47.9128 42.884C49.4125 42.7947 50.4723 42.5728 51.2653 42.2429C52.0799 41.904 52.577 41.4658 52.9662 41.0152C53.2263 40.714 53.4375 40.2509 53.6041 39.7771C53.7794 39.2786 53.9352 38.68 54.0504 38.041ZM27.7541 33.6692C27.4299 34.4434 27.2064 35.6551 27.1987 36.9024C27.1906 38.2069 27.4198 39.3706 27.8557 40.0463C28.4609 40.6864 29.5499 41.3088 30.8547 41.6194C32.1757 41.934 33.6332 41.9086 34.9272 41.3368L34.9393 41.3315L34.9517 41.3265C35.7436 41.0097 36.3688 40.2985 36.8304 39.3439C37.2894 38.3947 37.5467 37.2832 37.6433 36.3173C37.745 35.3007 37.6729 34.8356 37.4992 34.538C37.3287 34.2462 36.9704 33.9634 36.0428 33.5815C35.0113 33.1567 33.1416 32.8999 31.3365 32.933C30.4451 32.9494 29.6085 33.0361 28.936 33.1925C28.3205 33.3356 27.9425 33.5147 27.7541 33.6692ZM42.3854 35.0582C42.5918 34.3979 43.9754 32.8175 47.7102 32.9167C49.6503 32.9682 50.8716 33.1519 51.6238 33.4357C52.3252 33.7004 52.5306 34.0121 52.6109 34.3504C52.8442 35.3326 52.7903 36.6155 52.581 37.7761C52.4778 38.3487 52.3407 38.869 52.1956 39.2818C52.0417 39.7193 51.9049 39.9597 51.8362 40.0393C51.5677 40.3501 51.2522 40.6312 50.6917 40.8644C50.1096 41.1066 49.2319 41.3098 47.8241 41.3936C46.6311 41.4646 45.5504 41.2943 44.6977 40.9773C43.8315 40.6552 43.2656 40.2078 43.0021 39.7766C42.9597 39.7072 42.8625 39.4575 42.7492 39.0071C42.644 38.5887 42.5431 38.0735 42.4651 37.5415C42.387 37.0089 42.3339 36.4735 42.3202 36.0136C42.3058 35.53 42.3383 35.2089 42.3854 35.0582ZM34.6337 45.8604C34.2981 46.0732 34.1986 46.5178 34.4114 46.8534C35.4583 48.5044 37.3787 49.3486 39.1925 49.5347C40.9828 49.7183 42.9315 49.2828 44.0063 48.0361C44.2658 47.7351 44.2321 47.2807 43.9311 47.0212C43.6301 46.7617 43.1757 46.7954 42.9162 47.0964C42.2751 47.8401 40.895 48.2625 39.3393 48.103C37.8072 47.9458 36.3644 47.2458 35.6268 46.0827C35.414 45.7471 34.9694 45.6475 34.6337 45.8604ZM40.5876 44.4991C40.9594 44.3209 41.1164 43.875 40.9382 43.5032C40.76 43.1314 40.3142 42.9744 39.9424 43.1526C39.8954 43.1751 39.7932 43.2017 39.6649 43.204C39.6059 43.2051 39.5563 43.2007 39.5216 43.1945C39.5135 43.1931 39.5071 43.1918 39.5024 43.1907L39.4973 43.1894C39.1357 43.0111 38.6958 43.1525 38.5069 43.5113C38.3148 43.8761 38.4548 44.3276 38.8197 44.5197C39.0974 44.6659 39.4312 44.7016 39.6923 44.6969C39.9685 44.6918 40.2958 44.6389 40.5876 44.4991Z" fill="white"/>
<circle cx="40" cy="40" r="38.75" stroke="white" stroke-width="2.5"/>
</svg>
